# Blender v2.91.0 OBJ File: ''
# www.blender.org
mtllib house.mtl
o Cube
v 1.325050 0.956550 -1.624110
v 0.887144 -0.875447 -1.000000
v 1.325050 0.956550 1.624110
v 0.887144 -0.875447 1.000000
v -1.325050 0.956550 -1.624110
v -0.887144 -0.875447 -1.000000
v -1.325050 0.956550 1.624110
v -0.887144 -0.875447 1.000000
v 1.621292 2.111032 0.211180
v -1.621292 2.111032 0.211180
v 1.621292 2.111032 -0.211180
v -1.621292 2.111032 -0.211180
v -0.887144 -0.875447 0.000000
v 1.325050 0.956550 0.000000
v -1.325050 0.956550 0.000000
v 0.887144 -0.875447 0.000000
v 1.621292 2.111032 0.000000
v -1.621292 2.111032 0.000000
v 1.175510 0.958872 -1.325050
v -1.175510 0.958872 1.325050
v 1.175510 0.958872 1.325050
v -1.175510 0.958872 -1.325050
v 1.175510 0.958872 0.000000
v -1.175510 0.958872 0.000000
v 1.039487 0.561929 -1.171724
v 0.968047 0.191851 -1.091195
v 0.908285 -0.145800 -1.023831
v 0.887144 -0.500007 -1.000000
v 1.039487 0.561929 1.171724
v 0.968047 0.191851 1.091195
v 0.908285 -0.145800 1.023831
v 0.887144 -0.500007 1.000000
v -1.039487 0.561929 -1.171724
v -0.968047 0.191851 -1.091195
v -0.908285 -0.145800 -1.023831
v -0.887144 -0.500007 -1.000000
v 1.039487 0.561929 0.000000
v -1.039487 0.561929 0.000000
v -0.968047 0.191851 0.000000
v -0.908285 -0.145800 0.000000
v -0.887144 -0.500007 0.000000
v -0.887144 -0.500007 1.000000
v -0.908285 -0.145800 1.023831
v -0.968047 0.191851 1.091195
v -1.039487 0.561929 1.171724
v -1.379790 1.218884 -1.313334
v -1.429164 1.499680 -0.968938
v -1.505690 1.793243 -0.608471
v 1.505690 1.793243 -0.608471
v 1.429164 1.499680 -0.968938
v 1.379790 1.218884 -1.313334
v 1.379790 1.218884 1.313334
v 1.429164 1.499680 0.968938
v 1.505690 1.793243 0.608471
v -1.505690 1.793243 0.608471
v -1.429164 1.499680 0.968938
v -1.379790 1.218884 1.313334
v 1.379790 1.218884 0.000000
v 1.429164 1.499680 0.000000
v 1.505690 1.793243 0.000000
v -1.379790 1.218884 0.000000
v -1.429164 1.499680 0.000000
v -1.505690 1.793243 0.000000
v 0.892303 -0.464871 -0.560194
v 0.892303 -0.802242 -0.560194
v 0.892303 -0.464871 0.560194
v 0.892303 -0.802242 0.560194
v 0.892303 -0.802242 0.000000
v 1.029199 0.457674 -0.178508
v 0.965003 0.156834 -0.507694
v 0.911300 -0.146581 -0.573544
v 1.029199 0.457674 0.178508
v 0.965003 0.156834 0.507694
v 0.911300 -0.146581 0.573544
v 1.029199 0.489386 0.000000
v 0.470109 -0.418281 -0.560194
v 0.470109 -0.755652 -0.560194
v 0.470109 -0.418281 0.560194
v 0.470109 -0.755652 0.560194
v 0.470109 -0.755652 0.000000
v 0.470109 -0.418281 0.000000
v 0.607005 0.504264 -0.178508
v 0.542809 0.203423 -0.507694
v 0.489106 -0.099991 -0.573544
v 0.607005 0.504264 0.178508
v 0.542809 0.203423 0.507694
v 0.489106 -0.099991 0.573544
v 0.607005 0.535976 0.000000
v 0.542809 0.203423 0.000000
v 0.489106 -0.099991 0.000000
vt 0.625000 0.250000
vt 0.625000 0.500000
vt 0.625000 0.500000
vt 0.625000 0.750000
vt 0.609650 1.000000
vt 0.609650 0.750000
vt 0.625000 0.125000
vt 0.609650 0.250000
vt 0.609650 0.125000
vt 0.375000 0.625000
vt 0.125000 0.750000
vt 0.125000 0.625000
vt 0.625000 0.625000
vt 0.609650 0.625000
vt 0.625000 0.250000
vt 0.609650 0.500000
vt 0.875000 0.625000
vt 0.625000 0.750000
vt 0.625000 0.625000
vt 0.625000 0.750000
vt 0.625000 1.000000
vt 0.625000 1.000000
vt 0.625000 0.125000
vt 0.625000 0.000000
vt 0.625000 0.125000
vt 0.625000 0.625000
vt 0.625000 0.250000
vt 0.875000 0.500000
vt 0.375000 0.500000
vt 0.125000 0.500000
vt 0.609650 0.000000
vt 0.562720 0.000000
vt 0.562720 0.125000
vt 0.562720 0.500000
vt 0.562720 0.625000
vt 0.562720 0.250000
vt 0.562720 0.750000
vt 0.562720 1.000000
vt 0.421930 0.750000
vt 0.375000 1.000000
vt 0.375000 0.750000
vt 0.468860 0.750000
vt 0.421930 1.000000
vt 0.515790 0.750000
vt 0.468860 1.000000
vt 0.515790 1.000000
vt 0.421930 0.125000
vt 0.375000 0.250000
vt 0.375000 0.125000
vt 0.468860 0.125000
vt 0.421930 0.250000
vt 0.515790 0.125000
vt 0.468860 0.250000
vt 0.515790 0.250000
vt 0.375000 0.750000
vt 0.421930 0.750000
vt 0.468860 0.750000
vt 0.421930 0.500000
vt 0.468860 0.500000
vt 0.421930 0.500000
vt 0.468860 0.500000
vt 0.515790 0.500000
vt 0.515790 0.750000
vt 0.375000 0.500000
vt 0.562720 0.500000
vt 0.515790 0.500000
vt 0.421930 0.000000
vt 0.375000 0.000000
vt 0.468860 0.000000
vt 0.515790 0.000000
vt 0.625000 0.250000
vt 0.625000 0.125000
vt 0.625000 0.250000
vt 0.625000 0.125000
vt 0.625000 0.750000
vt 0.625000 0.625000
vt 0.625000 0.750000
vt 0.625000 0.625000
vt 0.625000 0.500000
vt 0.625000 0.500000
vt 0.625000 0.000000
vt 0.625000 0.000000
vt 0.625000 0.000000
vt 0.625000 1.000000
vt 0.625000 1.000000
vt 0.625000 1.000000
vt 0.625000 0.500000
vt 0.375000 0.625000
vt 0.375000 0.750000
vt 0.515790 0.500000
vt 0.468860 0.500000
vt 0.515790 0.750000
vt 0.375000 0.625000
vt 0.562720 0.500000
vt 0.562720 0.750000
vt 0.562720 0.750000
vt 0.421930 0.750000
vt 0.562720 0.625000
vt 0.421930 0.625000
vt 0.468860 0.625000
vt 0.468860 0.750000
vt 0.515790 0.625000
vt 0.421930 0.500000
vt 0.375000 0.500000
vt 0.562720 0.625000
vt 0.875000 0.750000
vt 0.625000 0.000000
vn -0.0000 0.7809 -0.6246
vn 0.0000 -1.0000 -0.0078
vn 0.0155 -0.9999 0.0000
vn 0.0000 -1.0000 0.0000
vn -0.0155 -0.9999 0.0000
vn 0.0000 -1.0000 0.0078
vn 0.0000 1.0000 0.0000
vn 0.0000 0.7809 0.6246
vn -0.9398 -0.3419 0.0000
vn 0.9398 -0.3419 0.0000
vn -0.9460 -0.3242 0.0000
vn 0.9460 -0.3242 0.0000
vn 0.0000 -0.3603 -0.9328
vn 0.0000 -0.3603 0.9328
vn 0.0000 0.0000 1.0000
vn -0.0000 -0.0671 0.9977
vn -0.0000 -0.1957 0.9807
vn 0.0000 -0.2126 0.9771
vn -1.0000 0.0000 0.0000
vn -0.9982 -0.0596 0.0000
vn -0.9847 -0.1743 0.0000
vn -0.9819 -0.1895 0.0000
vn 0.9999 0.0000 0.0117
vn 0.9982 -0.0600 0.0068
vn 0.9982 -0.0599 -0.0069
vn 0.9975 -0.0703 0.0000
vn 0.0000 0.0000 -1.0000
vn 0.0000 -0.0671 -0.9977
vn 0.0000 -0.1957 -0.9807
vn 0.0000 -0.2126 -0.9771
vn 0.9845 -0.1753 0.0054
vn 0.9999 0.0000 -0.0117
vn 0.9952 -0.0982 0.0000
vn 0.9849 -0.1728 -0.0069
vn -0.9789 -0.2043 0.0000
vn -0.9849 -0.1732 0.0000
vn -0.9677 -0.2523 0.0000
vn 0.9789 -0.2043 0.0000
vn 0.9849 -0.1732 0.0000
vn 0.9677 -0.2523 0.0000
vn 0.9677 -0.2522 0.0000
vn -0.9677 -0.2522 0.0000
vn 0.0000 0.7642 0.6450
vn 0.0000 0.7750 0.6319
vn -0.0000 0.7754 0.6315
vn 0.0000 0.7642 -0.6450
vn 0.0000 0.7750 -0.6319
vn 0.0000 0.7754 -0.6315
vn 0.1097 0.9940 0.0000
vn -0.0230 -0.2082 0.9778
vn -0.0230 -0.2082 -0.9778
vn -0.0803 -0.7279 0.6809
vn -0.0803 -0.7279 -0.6809
vn -0.1080 -0.9788 0.1739
vn 0.9898 -0.1404 -0.0249
vn 0.9816 -0.1909 -0.0063
vn 0.9802 -0.1976 0.0106
vn 1.0000 0.0000 0.0000
vn 0.9982 -0.0596 0.0000
vn 0.9847 -0.1743 -0.0000
vn 0.9780 -0.2087 0.0000
vn 0.0046 0.0416 -0.9991
vn -0.1080 -0.9788 -0.1739
vn 0.0046 0.0416 0.9991
vn 0.9982 -0.0599 0.0069
vn 0.9982 -0.0600 -0.0068
vn 0.9849 -0.1728 0.0069
vn 0.9898 -0.1404 0.0249
vn 0.9845 -0.1753 -0.0054
vn 0.9802 -0.1976 -0.0106
vn 0.9816 -0.1909 0.0063
vn 0.9813 -0.1894 -0.0337
vn 0.9813 -0.1894 0.0337
usemtl Material
s off
f 48/1/1 11/2/1 49/3/1
f 3/4/2 20/5/2 21/6/2
f 15/7/3 22/8/3 24/9/3
f 16/10/4 8/11/4 13/12/4
f 14/13/5 21/6/5 23/14/5
f 5/15/6 19/16/6 22/8/6
f 18/17/7 9/18/7 17/19/7
f 54/20/8 10/21/8 55/22/8
f 63/23/9 10/24/9 18/25/9
f 60/26/10 11/2/10 17/19/10
f 60/26/10 9/18/10 54/20/10
f 63/23/9 12/27/9 48/1/9
f 12/28/7 17/19/7 11/2/7
f 19/16/5 14/13/5 23/14/5
f 2/29/4 13/12/4 6/30/4
f 20/31/3 15/7/3 24/9/3
f 45/32/11 24/9/11 38/33/11
f 25/34/12 23/14/12 37/35/12
f 22/8/13 25/34/13 33/36/13
f 23/14/12 29/37/12 37/35/12
f 24/9/11 33/36/11 38/33/11
f 21/6/14 45/38/14 29/37/14
f 32/39/15 8/40/15 4/41/15
f 31/42/16 42/43/16 32/39/16
f 30/44/17 43/45/17 31/42/17
f 29/37/18 44/46/18 30/44/18
f 41/47/19 6/48/19 13/49/19
f 40/50/20 36/51/20 41/47/20
f 39/52/21 35/53/21 40/50/21
f 38/33/22 34/54/22 39/52/22
f 32/39/23 67/55/23 66/56/23
f 32/39/24 74/57/24 31/42/24
f 28/58/25 71/59/25 64/60/25
f 16/10/26 67/55/26 4/41/26
f 36/51/27 2/29/27 6/48/27
f 35/53/28 28/58/28 36/51/28
f 34/54/29 27/61/29 35/53/29
f 33/36/30 26/62/30 34/54/30
f 31/42/31 73/63/31 30/44/31
f 28/58/32 65/64/32 2/29/32
f 37/35/33 69/65/33 25/34/33
f 27/61/34 70/66/34 71/59/34
f 42/67/19 13/49/19 8/68/19
f 42/67/20 40/50/20 41/47/20
f 43/69/21 39/52/21 40/50/21
f 44/70/22 38/33/22 39/52/22
f 15/7/35 46/71/35 5/15/35
f 61/72/36 47/73/36 46/71/36
f 62/74/37 48/1/37 47/73/37
f 14/13/38 52/75/38 3/4/38
f 58/76/39 53/77/39 52/75/39
f 59/78/40 54/20/40 53/77/40
f 14/13/38 51/79/38 58/76/38
f 58/76/39 50/80/39 59/78/39
f 59/78/41 49/3/41 60/26/41
f 15/7/35 57/81/35 61/72/35
f 61/72/36 56/82/36 62/74/36
f 62/74/42 55/83/42 63/23/42
f 3/4/43 57/84/43 7/85/43
f 52/75/44 56/86/44 57/84/44
f 53/77/45 55/22/45 56/86/45
f 5/15/46 51/79/46 1/87/46
f 46/71/47 50/80/47 51/79/47
f 47/73/48 49/3/48 50/80/48
f 68/88/49 79/89/49 67/55/49
f 71/59/50 83/90/50 84/91/50
f 74/57/51 86/92/51 73/63/51
f 65/64/49 80/93/49 68/88/49
f 70/66/52 82/94/52 83/90/52
f 73/63/53 85/95/53 72/96/53
f 66/56/27 79/89/27 78/97/27
f 75/98/54 82/94/54 69/65/54
f 37/35/55 72/96/55 75/98/55
f 25/34/56 70/66/56 26/62/56
f 16/10/26 65/64/26 68/88/26
f 29/37/57 73/63/57 72/96/57
f 81/99/58 79/89/58 80/93/58
f 90/100/59 78/97/59 81/99/59
f 90/100/60 86/92/60 87/101/60
f 89/102/61 85/95/61 86/92/61
f 76/103/58 80/93/58 77/104/58
f 76/103/59 90/100/59 81/99/59
f 83/90/60 90/100/60 84/91/60
f 82/94/61 89/102/61 83/90/61
f 74/57/62 78/97/62 87/101/62
f 75/98/63 85/95/63 88/105/63
f 64/60/15 77/104/15 65/64/15
f 71/59/64 76/103/64 64/60/64
f 48/1/1 12/27/1 11/2/1
f 3/4/2 7/85/2 20/5/2
f 15/7/3 5/15/3 22/8/3
f 16/10/4 4/41/4 8/11/4
f 14/13/5 3/4/5 21/6/5
f 5/15/6 1/87/6 19/16/6
f 18/17/7 10/106/7 9/18/7
f 54/20/8 9/18/8 10/21/8
f 63/23/9 55/83/9 10/24/9
f 60/26/10 49/3/10 11/2/10
f 60/26/10 17/19/10 9/18/10
f 63/23/9 18/25/9 12/27/9
f 12/28/7 18/17/7 17/19/7
f 19/16/5 1/87/5 14/13/5
f 2/29/4 16/10/4 13/12/4
f 20/31/3 7/107/3 15/7/3
f 45/32/11 20/31/11 24/9/11
f 25/34/12 19/16/12 23/14/12
f 22/8/13 19/16/13 25/34/13
f 23/14/12 21/6/12 29/37/12
f 24/9/11 22/8/11 33/36/11
f 21/6/14 20/5/14 45/38/14
f 32/39/15 42/43/15 8/40/15
f 31/42/16 43/45/16 42/43/16
f 30/44/17 44/46/17 43/45/17
f 29/37/18 45/38/18 44/46/18
f 41/47/19 36/51/19 6/48/19
f 40/50/20 35/53/20 36/51/20
f 39/52/21 34/54/21 35/53/21
f 38/33/22 33/36/22 34/54/22
f 32/39/23 4/41/23 67/55/23
f 32/39/65 66/56/65 74/57/65
f 28/58/66 27/61/66 71/59/66
f 16/10/26 68/88/26 67/55/26
f 36/51/27 28/58/27 2/29/27
f 35/53/28 27/61/28 28/58/28
f 34/54/29 26/62/29 27/61/29
f 33/36/30 25/34/30 26/62/30
f 31/42/67 74/57/67 73/63/67
f 28/58/32 64/60/32 65/64/32
f 37/35/68 75/98/68 69/65/68
f 27/61/69 26/62/69 70/66/69
f 42/67/19 41/47/19 13/49/19
f 42/67/20 43/69/20 40/50/20
f 43/69/21 44/70/21 39/52/21
f 44/70/22 45/32/22 38/33/22
f 15/7/35 61/72/35 46/71/35
f 61/72/36 62/74/36 47/73/36
f 62/74/42 63/23/42 48/1/42
f 14/13/38 58/76/38 52/75/38
f 58/76/39 59/78/39 53/77/39
f 59/78/41 60/26/41 54/20/41
f 14/13/38 1/87/38 51/79/38
f 58/76/39 51/79/39 50/80/39
f 59/78/40 50/80/40 49/3/40
f 15/7/35 7/107/35 57/81/35
f 61/72/36 57/81/36 56/82/36
f 62/74/37 56/82/37 55/83/37
f 3/4/43 52/75/43 57/84/43
f 52/75/44 53/77/44 56/86/44
f 53/77/45 54/20/45 55/22/45
f 5/15/46 46/71/46 51/79/46
f 46/71/47 47/73/47 50/80/47
f 47/73/48 48/1/48 49/3/48
f 68/88/49 80/93/49 79/89/49
f 71/59/50 70/66/50 83/90/50
f 74/57/51 87/101/51 86/92/51
f 65/64/49 77/104/49 80/93/49
f 70/66/52 69/65/52 82/94/52
f 73/63/53 86/92/53 85/95/53
f 66/56/27 67/55/27 79/89/27
f 75/98/54 88/105/54 82/94/54
f 37/35/33 29/37/33 72/96/33
f 25/34/70 69/65/70 70/66/70
f 16/10/26 2/29/26 65/64/26
f 29/37/71 30/44/71 73/63/71
f 81/99/58 78/97/58 79/89/58
f 90/100/59 87/101/59 78/97/59
f 90/100/60 89/102/60 86/92/60
f 89/102/72 88/105/72 85/95/72
f 76/103/58 81/99/58 80/93/58
f 76/103/59 84/91/59 90/100/59
f 83/90/60 89/102/60 90/100/60
f 82/94/73 88/105/73 89/102/73
f 74/57/62 66/56/62 78/97/62
f 75/98/63 72/96/63 85/95/63
f 64/60/15 76/103/15 77/104/15
f 71/59/64 84/91/64 76/103/64
